<svg xmlns="http://www.w3.org/2000/svg" width="16" height="16" fill="currentColor" class="bibi-house" viewBox="0 0 16 16">
  <path d="M8.707 1.5a1 1 0 0 0-1.414 0L.646 8.146a.5.5 0 0 0 .708.708L2 8.207V13.5A1.5 1.5 0 0 0 3.5 15h9a1.5 1.5 0 0 0 1.5-1.5V8.207l.646.647a.5.5 0 0 0 .708-.708L13 5.793V2.5a.5.5 0 0 0-.5-.5h-1a.5.5 0 0 0-.5.5v1.293L8.707 1.5ZM13 7.207V13.5a.5.5 0 0 1-.5.5h-9a.5.5 0 0 1-.5-.5V7.207l5-5 5 5Z"/>
</svg>
<svg xmlns="http://www.w3.org/2000/svg" x="0px" y="0px" width="100" height="100" viewBox="0 0 50 50">
<path d="M 45.273438 2.324219 C 45.085938 2.117188 44.816406 2 44.535156 2 L 5.464844 2 C 5.183594 2 4.914063 2.117188 4.726563 2.324219 C 4.535156 2.53125 4.441406 2.808594 4.46875 3.089844 L 7.988281 42.515625 C 8.023438 42.929688 8.3125 43.273438 8.710938 43.390625 L 24.722656 47.960938 C 24.808594 47.988281 24.902344 48 24.996094 48 C 25.089844 48 25.179688 47.988281 25.269531 47.960938 L 41.292969 43.390625 C 41.691406 43.273438 41.976563 42.929688 42.015625 42.515625 L 45.53125 3.089844 C 45.558594 2.808594 45.464844 2.53125 45.273438 2.324219 Z M 36.847656 15.917969 L 18.035156 15.917969 L 18.484375 21.007813 L 36.394531 21.007813 L 35.050781 36.050781 L 24.992188 39.089844 L 24.894531 39.058594 L 14.953125 36.046875 L 14.410156 29.917969 L 19.28125 29.917969 L 19.492188 32.296875 L 25.050781 33.460938 L 30.507813 32.296875 L 31.089844 25.859375 L 14.046875 25.859375 L 12.722656 11.054688 L 37.28125 11.054688 Z"></path>
</svg>
<svg xmlns="http://www.w3.org/2000/svg" viewBox="0 0 384 512">
<!--!Font Awesome Free 6.5.1 by @fontawesome - https://fontawesome.com License - https://fontawesome.com/license/free Copyright 2024 Fonticons, Inc.-->
<path d="M0 32l34.9 395.8L191.5 480l157.6-52.2L384 32H0zm308.2 127.9H124.4l4.1 49.4h175.6l-13.6 148.4-97.9 27v.3h-1.1l-98.7-27.3-6-75.8h47.7L138 320l53.5 14.5 53.7-14.5 6-62.2H84.3L71.5 112.2h241.1l-4.4 47.7z"/>
</svg>